<svg width="32" height="32" viewBox="0 0 32 32" fill="none" xmlns="http://www.w3.org/2000/svg">
<path d="M20.0003 30.3334H12.0003C4.76033 30.3334 1.66699 27.24 1.66699 20V12C1.66699 4.76002 4.76033 1.66669 12.0003 1.66669H20.0003C27.2403 1.66669 30.3337 4.76002 30.3337 12V20C30.3337 27.24 27.2403 30.3334 20.0003 30.3334ZM12.0003 3.66669C5.85366 3.66669 3.66699 5.85335 3.66699 12V20C3.66699 26.1467 5.85366 28.3334 12.0003 28.3334H20.0003C26.147 28.3334 28.3337 26.1467 28.3337 20V12C28.3337 5.85335 26.147 3.66669 20.0003 3.66669H12.0003Z" fill="#F4EDD0"/>
<path d="M14.3199 21.7066C14.0666 21.7066 13.8132 21.6133 13.6132 21.4133C13.2266 21.0266 13.2266 20.3866 13.6132 20L17.6132 16L13.6132 12C13.2266 11.6133 13.2266 10.9733 13.6132 10.5866C13.9999 10.2 14.6399 10.2 15.0266 10.5866L19.7332 15.2933C20.1199 15.68 20.1199 16.32 19.7332 16.7066L15.0266 21.4133C14.8266 21.6133 14.5732 21.7066 14.3199 21.7066Z" fill="#F4EDD0"/>
</svg>
