<svg width="32" height="32" viewBox="0 0 32 32" fill="none" xmlns="http://www.w3.org/2000/svg">
<path d="M20.0003 30.3334H12.0003C4.76033 30.3334 1.66699 27.24 1.66699 20V12C1.66699 4.76002 4.76033 1.66669 12.0003 1.66669H20.0003C27.2403 1.66669 30.3337 4.76002 30.3337 12V20C30.3337 27.24 27.2403 30.3334 20.0003 30.3334ZM12.0003 3.66669C5.85366 3.66669 3.66699 5.85335 3.66699 12V20C3.66699 26.1467 5.85366 28.3334 12.0003 28.3334H20.0003C26.147 28.3334 28.3337 26.1467 28.3337 20V12C28.3337 5.85335 26.147 3.66669 20.0003 3.66669H12.0003Z" fill="#F4EDD0"/>
<path d="M17.6799 21.7066C17.4266 21.7066 17.1732 21.6133 16.9732 21.4133L12.2666 16.7066C11.8799 16.32 11.8799 15.68 12.2666 15.2933L16.9732 10.5866C17.3599 10.2 17.9999 10.2 18.3866 10.5866C18.7732 10.9733 18.7732 11.6133 18.3866 12L14.3866 16L18.3866 20C18.7732 20.3866 18.7732 21.0266 18.3866 21.4133C18.1999 21.6133 17.9466 21.7066 17.6799 21.7066Z" fill="#F4EDD0"/>
</svg>
