<svg width="20" height="21" viewBox="0 0 20 21" fill="none" xmlns="http://www.w3.org/2000/svg">
<path d="M15.9388 10.2469C15.9388 10.0523 15.8571 9.86394 15.7128 9.72583L11.5882 5.60125C11.4249 5.4443 11.2554 5.37524 11.0797 5.37524C10.6779 5.37524 10.3891 5.65775 10.3891 6.0407C10.3891 6.24159 10.4707 6.4111 10.5963 6.53666L12.0088 7.96802L13.8294 9.63166L12.3729 9.54377H4.76409C4.34347 9.54377 4.05469 9.83255 4.05469 10.2469C4.05469 10.655 4.34347 10.9437 4.76409 10.9437H12.3729L13.8294 10.8559L12.0088 12.5195L10.5963 13.9509C10.4707 14.0764 10.3891 14.2459 10.3891 14.4468C10.3891 14.8298 10.6779 15.1123 11.0797 15.1123C11.2554 15.1123 11.4249 15.0432 11.5756 14.8988L15.7128 10.7617C15.8571 10.6236 15.9388 10.4352 15.9388 10.2469Z" fill="#EBEBEB"/>
</svg>
