<svg width="265" height="125" viewBox="0 0 265 125" fill="none" xmlns="http://www.w3.org/2000/svg">
<g clip-path="url(#clip0_159_3223)">
<rect x="0.285156" y="0.304688" width="264.478" height="124" rx="8" fill="white"/>
<g clip-path="url(#clip1_159_3223)">
<path d="M-20.5204 52.1675C-36.4278 62.5085 -64.6114 38.9878 -76.7148 25.9348L-53.1564 130.195L302.597 114.608L341.285 -19.307C333.937 -27.0374 312.929 -40.4453 287.684 -32.2333C256.129 -21.9683 272.123 17.1905 228.464 17.1905C196.697 17.1905 198.043 3.11227 174.804 33.6794C169.751 40.3247 162.47 45.339 154.128 45.6325C121.482 46.7812 116.449 25.0041 72.4165 17.1905C23.1383 8.44631 -0.636246 39.2412 -20.5204 52.1675Z" fill="url(#paint0_linear_159_3223)"/>
<path d="M-77.7148 25.2547C-65.5825 38.3765 -37.3314 62.0211 -21.386 51.6256C-1.45425 38.6313 22.3772 7.67413 71.7733 16.4644C115.89 24.3152 120.951 46.1893 153.632 45.0579C162.025 44.7673 169.346 39.7133 174.42 33.0212C197.699 2.31779 196.358 16.4644 228.194 16.4644C271.957 16.4644 255.925 -22.9007 287.556 -33.2198C312.861 -41.475 333.919 -27.9965 341.285 -20.2254" stroke="black" stroke-width="2.57198"/>
</g>
<path d="M72.9109 82.1953V51.6041H77.0103V82.1953H72.9109ZM66.6516 55.3067V51.6041H76.5695V55.3067H66.6516ZM91.4984 82.6361C89.412 82.6361 87.5459 82.2688 85.9003 81.5341C84.284 80.7701 82.9176 79.6681 81.8009 78.2281L84.622 75.407C85.2979 76.4356 86.2236 77.2584 87.399 77.8755C88.6039 78.4632 89.9409 78.7571 91.4103 78.7571C92.7914 78.7571 93.9963 78.4926 95.0248 77.9637C96.0827 77.4347 96.9055 76.7001 97.4932 75.7597C98.1104 74.7899 98.4189 73.6439 98.4189 72.3215C98.4189 70.9697 98.1251 69.8236 97.5373 68.8833C96.9496 67.9429 96.1562 67.2376 95.157 66.7674C94.1873 66.2679 93.1147 66.0181 91.9392 66.0181C90.7344 66.0181 89.6324 66.165 88.6332 66.4589C87.6635 66.7528 86.7378 67.2523 85.8562 67.9576L85.9003 65.3128C86.3999 64.6957 86.9729 64.1961 87.6194 63.8141C88.2659 63.4321 89.0006 63.1382 89.8234 62.9325C90.6462 62.7268 91.6013 62.624 92.6886 62.624C94.8044 62.624 96.597 63.0648 98.0663 63.9463C99.5356 64.8279 100.652 66.0181 101.416 67.5168C102.21 69.0155 102.606 70.6905 102.606 72.5419C102.606 74.4814 102.122 76.2152 101.152 77.7433C100.211 79.2714 98.9038 80.4762 97.2288 81.3578C95.5537 82.21 93.6436 82.6361 91.4984 82.6361ZM85.8562 67.9576L83.6082 65.7095L84.9746 51.6041H88.7655L87.2227 66.1062L85.8562 67.9576ZM85.8121 55.3067L84.9746 51.6041H101.064V55.3067H85.8121ZM112.79 63.5496C111.673 63.5496 110.644 63.2705 109.704 62.7121C108.764 62.1538 108.014 61.4044 107.456 60.4641C106.898 59.5237 106.618 58.4805 106.618 57.3344C106.618 56.1589 106.883 55.1157 107.412 54.2047C107.97 53.2938 108.72 52.5591 109.66 52.0008C110.6 51.4424 111.643 51.1633 112.79 51.1633C113.965 51.1633 115.023 51.4424 115.963 52.0008C116.904 52.5591 117.653 53.2938 118.211 54.2047C118.77 55.1157 119.049 56.1589 119.049 57.3344C119.049 58.4805 118.77 59.5237 118.211 60.4641C117.653 61.4044 116.904 62.1538 115.963 62.7121C115.052 63.2705 113.994 63.5496 112.79 63.5496ZM112.79 60.42C113.671 60.42 114.391 60.1408 114.949 59.5825C115.508 58.9947 115.787 58.2454 115.787 57.3344C115.787 56.4234 115.493 55.6888 114.905 55.1304C114.347 54.5721 113.642 54.2929 112.79 54.2929C111.937 54.2929 111.232 54.5721 110.674 55.1304C110.145 55.6888 109.88 56.4234 109.88 57.3344C109.88 58.2454 110.145 58.9947 110.674 59.5825C111.232 60.1408 111.937 60.42 112.79 60.42ZM125.088 82.6361C123.942 82.6361 122.898 82.3569 121.958 81.7986C121.018 81.2403 120.268 80.5056 119.71 79.5946C119.152 78.6542 118.873 77.5963 118.873 76.4209C118.873 75.2748 119.152 74.2463 119.71 73.3353C120.268 72.3949 121.018 71.6456 121.958 71.0872C122.898 70.5289 123.942 70.2497 125.088 70.2497C126.234 70.2497 127.277 70.5289 128.217 71.0872C129.187 71.6456 129.951 72.3949 130.51 73.3353C131.068 74.2463 131.347 75.2748 131.347 76.4209C131.347 77.5963 131.068 78.6542 130.51 79.5946C129.951 80.5056 129.202 81.2403 128.262 81.7986C127.321 82.3569 126.263 82.6361 125.088 82.6361ZM125.088 79.5065C125.969 79.5065 126.689 79.2273 127.248 78.6689C127.806 78.0812 128.085 77.3319 128.085 76.4209C128.085 75.5393 127.791 74.8193 127.204 74.261C126.645 73.6733 125.94 73.3794 125.088 73.3794C124.236 73.3794 123.53 73.6733 122.972 74.261C122.414 74.8193 122.134 75.5393 122.134 76.4209C122.134 77.3319 122.414 78.0812 122.972 78.6689C123.53 79.2273 124.236 79.5065 125.088 79.5065ZM107.147 82.1953L126.763 51.6041H130.774L111.159 82.1953H107.147Z" fill="black"/>
<path d="M67.3877 101.625V100.541H69.887C70.2309 100.541 70.535 100.47 70.7995 100.329C71.0728 100.188 71.2844 99.9895 71.4342 99.7338C71.5929 99.4782 71.6723 99.174 71.6723 98.8214C71.6723 98.4688 71.5929 98.1646 71.4342 97.909C71.2844 97.6533 71.0728 97.4549 70.7995 97.3139C70.535 97.1728 70.2309 97.1023 69.887 97.1023H67.3877V96.0179H69.9664C70.5306 96.0179 71.0331 96.1325 71.4739 96.3618C71.9235 96.591 72.2762 96.9172 72.5318 97.3403C72.7963 97.7547 72.9285 98.2484 72.9285 98.8214C72.9285 99.3856 72.7963 99.8793 72.5318 100.302C72.2762 100.717 71.9235 101.043 71.4739 101.281C71.0331 101.51 70.5306 101.625 69.9664 101.625H67.3877ZM66.5546 105.195V96.0179H67.7977V105.195H66.5546ZM76.9103 105.328C76.2843 105.328 75.7201 105.186 75.2176 104.904C74.7151 104.613 74.3184 104.221 74.0275 103.727C73.7365 103.234 73.5911 102.674 73.5911 102.048C73.5911 101.431 73.7321 100.876 74.0142 100.382C74.3052 99.8881 74.6931 99.5002 75.1779 99.2181C75.6716 98.9272 76.2226 98.7817 76.8309 98.7817C77.4128 98.7817 77.9241 98.914 78.3649 99.1784C78.8145 99.4429 79.1627 99.8088 79.4096 100.276C79.6652 100.743 79.7931 101.272 79.7931 101.863C79.7931 101.951 79.7887 102.048 79.7798 102.154C79.771 102.251 79.7534 102.365 79.7269 102.498H74.4242V101.506H79.0922L78.6558 101.889C78.6558 101.466 78.5809 101.109 78.431 100.818C78.2811 100.518 78.0696 100.289 77.7963 100.131C77.523 99.9631 77.1924 99.8793 76.8045 99.8793C76.3989 99.8793 76.0419 99.9675 75.7333 100.144C75.4248 100.32 75.1867 100.567 75.0192 100.884C74.8517 101.202 74.768 101.576 74.768 102.008C74.768 102.449 74.8562 102.837 75.0325 103.172C75.2088 103.498 75.46 103.754 75.7862 103.939C76.1124 104.115 76.4871 104.204 76.9103 104.204C77.2629 104.204 77.5847 104.142 77.8756 104.018C78.1753 103.895 78.431 103.71 78.6426 103.463L79.4096 104.243C79.1098 104.596 78.7396 104.865 78.2988 105.05C77.8668 105.235 77.404 105.328 76.9103 105.328ZM83.9603 105.328C83.3432 105.328 82.7878 105.182 82.2941 104.891C81.8004 104.6 81.4081 104.208 81.1172 103.714C80.8263 103.212 80.6808 102.652 80.6808 102.035C80.6808 101.427 80.8263 100.88 81.1172 100.395C81.4081 99.9013 81.8004 99.509 82.2941 99.2181C82.7878 98.9272 83.3432 98.7817 83.9603 98.7817C84.5686 98.7817 85.1196 98.9272 85.6133 99.2181C86.1158 99.5002 86.5126 99.8881 86.8035 100.382C87.0944 100.876 87.2399 101.427 87.2399 102.035C87.2399 102.652 87.0944 103.212 86.8035 103.714C86.5126 104.208 86.1158 104.6 85.6133 104.891C85.1196 105.182 84.5686 105.328 83.9603 105.328ZM83.9603 104.177C84.3571 104.177 84.7097 104.085 85.0183 103.899C85.3268 103.714 85.5693 103.463 85.7456 103.146C85.9219 102.819 86.0101 102.449 86.0101 102.035C86.0101 101.629 85.9175 101.268 85.7323 100.95C85.556 100.633 85.3136 100.386 85.005 100.21C84.7053 100.025 84.3571 99.9322 83.9603 99.9322C83.5636 99.9322 83.211 100.025 82.9024 100.21C82.5939 100.386 82.3514 100.633 82.1751 100.95C81.9988 101.268 81.9106 101.629 81.9106 102.035C81.9106 102.449 81.9988 102.819 82.1751 103.146C82.3514 103.463 82.5939 103.714 82.9024 103.899C83.211 104.085 83.5636 104.177 83.9603 104.177ZM91.8868 105.328C91.4108 105.328 90.9788 105.231 90.5909 105.037C90.2118 104.834 89.9077 104.556 89.6784 104.204C89.4492 103.851 89.3214 103.45 89.2949 103V101.109C89.3214 100.651 89.4492 100.25 89.6784 99.9058C89.9165 99.5531 90.225 99.2798 90.6041 99.0859C90.992 98.8831 91.4196 98.7817 91.8868 98.7817C92.4599 98.7817 92.9756 98.9272 93.434 99.2181C93.9013 99.509 94.2671 99.9013 94.5316 100.395C94.7961 100.889 94.9283 101.444 94.9283 102.061C94.9283 102.678 94.7961 103.234 94.5316 103.727C94.2671 104.221 93.9013 104.613 93.434 104.904C92.9756 105.186 92.4599 105.328 91.8868 105.328ZM91.6885 104.204C92.0852 104.204 92.4334 104.111 92.7332 103.926C93.0329 103.741 93.2709 103.489 93.4472 103.172C93.6236 102.846 93.7117 102.471 93.7117 102.048C93.7117 101.634 93.6236 101.263 93.4472 100.937C93.2709 100.611 93.0329 100.36 92.7332 100.183C92.4334 99.9983 92.0896 99.9058 91.7017 99.9058C91.305 99.9058 90.9567 99.9983 90.657 100.183C90.3573 100.36 90.1236 100.611 89.9561 100.937C89.7886 101.263 89.7049 101.638 89.7049 102.061C89.7049 102.476 89.7842 102.846 89.9429 103.172C90.1104 103.489 90.344 103.741 90.6438 103.926C90.9523 104.111 91.3006 104.204 91.6885 104.204ZM88.5809 107.827V98.914H89.771V100.567L89.5462 102.088L89.771 103.622V107.827H88.5809ZM96.2776 105.195V95.7535H97.4677V105.195H96.2776ZM102.118 105.328C101.492 105.328 100.928 105.186 100.426 104.904C99.9231 104.613 99.5264 104.221 99.2355 103.727C98.9446 103.234 98.7991 102.674 98.7991 102.048C98.7991 101.431 98.9402 100.876 99.2223 100.382C99.5132 99.8881 99.9011 99.5002 100.386 99.2181C100.88 98.9272 101.431 98.7817 102.039 98.7817C102.621 98.7817 103.132 98.914 103.573 99.1784C104.023 99.4429 104.371 99.8088 104.618 100.276C104.873 100.743 105.001 101.272 105.001 101.863C105.001 101.951 104.997 102.048 104.988 102.154C104.979 102.251 104.961 102.365 104.935 102.498H99.6322V101.506H104.3L103.864 101.889C103.864 101.466 103.789 101.109 103.639 100.818C103.489 100.518 103.278 100.289 103.004 100.131C102.731 99.9631 102.4 99.8793 102.013 99.8793C101.607 99.8793 101.25 99.9675 100.941 100.144C100.633 100.32 100.395 100.567 100.227 100.884C100.06 101.202 99.976 101.576 99.976 102.008C99.976 102.449 100.064 102.837 100.241 103.172C100.417 103.498 100.668 103.754 100.994 103.939C101.32 104.115 101.695 104.204 102.118 104.204C102.471 104.204 102.793 104.142 103.084 104.018C103.383 103.895 103.639 103.71 103.851 103.463L104.618 104.243C104.318 104.596 103.948 104.865 103.507 105.05C103.075 105.235 102.612 105.328 102.118 105.328ZM109.049 105.195V98.914H110.24V105.195H109.049ZM110.24 101.612L109.79 101.413C109.79 100.611 109.975 99.9719 110.345 99.4958C110.716 99.0198 111.249 98.7817 111.946 98.7817C112.263 98.7817 112.549 98.839 112.805 98.9536C113.061 99.0594 113.299 99.2402 113.519 99.4958L112.739 100.302C112.607 100.161 112.461 100.06 112.303 99.9983C112.144 99.9366 111.959 99.9058 111.747 99.9058C111.306 99.9058 110.945 100.047 110.663 100.329C110.381 100.611 110.24 101.039 110.24 101.612ZM117.06 105.328C116.434 105.328 115.87 105.186 115.367 104.904C114.865 104.613 114.468 104.221 114.177 103.727C113.886 103.234 113.741 102.674 113.741 102.048C113.741 101.431 113.882 100.876 114.164 100.382C114.455 99.8881 114.843 99.5002 115.327 99.2181C115.821 98.9272 116.372 98.7817 116.98 98.7817C117.562 98.7817 118.074 98.914 118.514 99.1784C118.964 99.4429 119.312 99.8088 119.559 100.276C119.815 100.743 119.943 101.272 119.943 101.863C119.943 101.951 119.938 102.048 119.929 102.154C119.921 102.251 119.903 102.365 119.876 102.498H114.574V101.506H119.242L118.805 101.889C118.805 101.466 118.73 101.109 118.58 100.818C118.431 100.518 118.219 100.289 117.946 100.131C117.672 99.9631 117.342 99.8793 116.954 99.8793C116.548 99.8793 116.191 99.9675 115.883 100.144C115.574 100.32 115.336 100.567 115.169 100.884C115.001 101.202 114.917 101.576 114.917 102.008C114.917 102.449 115.006 102.837 115.182 103.172C115.358 103.498 115.61 103.754 115.936 103.939C116.262 104.115 116.637 104.204 117.06 104.204C117.412 104.204 117.734 104.142 118.025 104.018C118.325 103.895 118.58 103.71 118.792 103.463L119.559 104.243C119.259 104.596 118.889 104.865 118.448 105.05C118.016 105.235 117.553 105.328 117.06 105.328ZM123.911 105.328C123.338 105.328 122.818 105.186 122.351 104.904C121.884 104.613 121.514 104.221 121.24 103.727C120.976 103.234 120.844 102.678 120.844 102.061C120.844 101.444 120.976 100.889 121.24 100.395C121.514 99.9013 121.879 99.509 122.338 99.2181C122.805 98.9272 123.33 98.7817 123.911 98.7817C124.388 98.7817 124.811 98.8831 125.181 99.0859C125.56 99.2798 125.864 99.5531 126.093 99.9058C126.323 100.25 126.45 100.651 126.477 101.109V103C126.45 103.45 126.323 103.851 126.093 104.204C125.873 104.556 125.573 104.834 125.194 105.037C124.824 105.231 124.396 105.328 123.911 105.328ZM124.11 104.204C124.7 104.204 125.177 104.005 125.538 103.608C125.899 103.203 126.08 102.687 126.08 102.061C126.08 101.629 125.996 101.255 125.829 100.937C125.67 100.611 125.441 100.36 125.141 100.183C124.842 99.9983 124.493 99.9058 124.097 99.9058C123.7 99.9058 123.347 99.9983 123.039 100.183C122.739 100.369 122.501 100.624 122.325 100.95C122.157 101.268 122.073 101.634 122.073 102.048C122.073 102.471 122.157 102.846 122.325 103.172C122.501 103.489 122.743 103.741 123.052 103.926C123.36 104.111 123.713 104.204 124.11 104.204ZM126.001 105.195V103.503L126.226 101.969L126.001 100.448V98.914H127.204V105.195H126.001ZM131.807 105.328C131.189 105.328 130.63 105.182 130.127 104.891C129.633 104.6 129.241 104.208 128.95 103.714C128.668 103.212 128.527 102.656 128.527 102.048C128.527 101.431 128.668 100.876 128.95 100.382C129.241 99.8881 129.633 99.5002 130.127 99.2181C130.63 98.9272 131.189 98.7817 131.807 98.7817C132.291 98.7817 132.741 98.8743 133.155 99.0594C133.57 99.2357 133.927 99.4958 134.227 99.8396L133.433 100.633C133.239 100.404 133.001 100.232 132.719 100.117C132.446 99.9939 132.142 99.9322 131.807 99.9322C131.41 99.9322 131.057 100.025 130.749 100.21C130.44 100.386 130.198 100.633 130.021 100.95C129.845 101.268 129.757 101.634 129.757 102.048C129.757 102.462 129.845 102.828 130.021 103.146C130.198 103.463 130.44 103.714 130.749 103.899C131.057 104.085 131.41 104.177 131.807 104.177C132.142 104.177 132.446 104.12 132.719 104.005C133.001 103.882 133.244 103.705 133.446 103.476L134.227 104.27C133.936 104.605 133.579 104.865 133.155 105.05C132.741 105.235 132.291 105.328 131.807 105.328ZM139.85 105.195V101.532C139.85 101.056 139.7 100.664 139.4 100.355C139.101 100.047 138.713 99.8925 138.237 99.8925C137.919 99.8925 137.637 99.9631 137.39 100.104C137.144 100.245 136.95 100.439 136.809 100.686C136.668 100.933 136.597 101.215 136.597 101.532L136.108 101.255C136.108 100.779 136.214 100.355 136.425 99.9851C136.637 99.6148 136.932 99.3239 137.311 99.1123C137.69 98.8919 138.118 98.7817 138.594 98.7817C139.07 98.7817 139.489 98.8875 139.85 99.0991C140.22 99.3107 140.511 99.606 140.723 99.9851C140.934 100.364 141.04 100.801 141.04 101.294V105.195H139.85ZM135.407 105.195V95.7535H136.597V105.195H135.407ZM145.561 105.328C144.935 105.328 144.371 105.186 143.868 104.904C143.366 104.613 142.969 104.221 142.678 103.727C142.387 103.234 142.242 102.674 142.242 102.048C142.242 101.431 142.383 100.876 142.665 100.382C142.956 99.8881 143.344 99.5002 143.828 99.2181C144.322 98.9272 144.873 98.7817 145.481 98.7817C146.063 98.7817 146.575 98.914 147.015 99.1784C147.465 99.4429 147.813 99.8088 148.06 100.276C148.316 100.743 148.444 101.272 148.444 101.863C148.444 101.951 148.439 102.048 148.43 102.154C148.422 102.251 148.404 102.365 148.378 102.498H143.075V101.506H147.743L147.306 101.889C147.306 101.466 147.231 101.109 147.082 100.818C146.932 100.518 146.72 100.289 146.447 100.131C146.174 99.9631 145.843 99.8793 145.455 99.8793C145.05 99.8793 144.692 99.9675 144.384 100.144C144.075 100.32 143.837 100.567 143.67 100.884C143.502 101.202 143.419 101.576 143.419 102.008C143.419 102.449 143.507 102.837 143.683 103.172C143.859 103.498 144.111 103.754 144.437 103.939C144.763 104.115 145.138 104.204 145.561 104.204C145.913 104.204 146.235 104.142 146.526 104.018C146.826 103.895 147.082 103.71 147.293 103.463L148.06 104.243C147.76 104.596 147.39 104.865 146.949 105.05C146.517 105.235 146.055 105.328 145.561 105.328ZM152.399 105.328C151.817 105.328 151.297 105.186 150.839 104.904C150.38 104.613 150.015 104.221 149.741 103.727C149.477 103.234 149.345 102.678 149.345 102.061C149.345 101.444 149.477 100.889 149.741 100.395C150.015 99.9013 150.38 99.509 150.839 99.2181C151.297 98.9272 151.817 98.7817 152.399 98.7817C152.867 98.7817 153.29 98.8831 153.669 99.0859C154.048 99.2798 154.352 99.5531 154.581 99.9058C154.819 100.25 154.952 100.651 154.978 101.109V103C154.952 103.45 154.824 103.851 154.595 104.204C154.365 104.556 154.061 104.834 153.682 105.037C153.303 105.231 152.875 105.328 152.399 105.328ZM152.598 104.204C152.994 104.204 153.338 104.111 153.629 103.926C153.929 103.741 154.163 103.489 154.33 103.172C154.498 102.846 154.581 102.476 154.581 102.061C154.581 101.629 154.493 101.255 154.317 100.937C154.149 100.62 153.916 100.369 153.616 100.183C153.325 99.9983 152.981 99.9058 152.584 99.9058C152.188 99.9058 151.84 99.9983 151.54 100.183C151.24 100.369 151.002 100.624 150.826 100.95C150.658 101.268 150.574 101.634 150.574 102.048C150.574 102.471 150.658 102.846 150.826 103.172C151.002 103.489 151.24 103.741 151.54 103.926C151.848 104.111 152.201 104.204 152.598 104.204ZM155.705 105.195H154.502V103.503L154.727 101.969L154.502 100.448V95.7535H155.705V105.195Z" fill="black"/>
</g>
<defs>
<linearGradient id="paint0_linear_159_3223" x1="132.285" y1="28.3059" x2="132.458" y2="112.844" gradientUnits="userSpaceOnUse">
<stop stop-color="#D7FF7F"/>
<stop offset="0.422015" stop-color="#FDE74C"/>
<stop offset="1" stop-color="white"/>
</linearGradient>
<clipPath id="clip0_159_3223">
<rect x="0.285156" y="0.304688" width="264.478" height="124" rx="8" fill="white"/>
</clipPath>
<clipPath id="clip1_159_3223">
<rect width="283" height="121" fill="white" transform="translate(0.285156 0.195312)"/>
</clipPath>
</defs>
</svg>
