<svg width="49" height="49" viewBox="0 0 49 49" fill="none" xmlns="http://www.w3.org/2000/svg">
<path d="M14.499 38.4834C13.679 38.4834 12.999 37.8034 12.999 36.9834V32.8434C12.999 32.0234 13.679 31.3434 14.499 31.3434C15.319 31.3434 15.999 32.0234 15.999 32.8434V36.9834C15.999 37.8234 15.319 38.4834 14.499 38.4834Z" fill="#FF4800"/>
<path d="M24.7393 38.4833C23.9193 38.4833 23.2393 37.8033 23.2393 36.9833V28.6833C23.2393 27.8633 23.9193 27.1833 24.7393 27.1833C25.5593 27.1833 26.2393 27.8633 26.2393 28.6833V36.9833C26.2393 37.8233 25.5593 38.4833 24.7393 38.4833Z" fill="#FF4800"/>
<path d="M34.9795 38.4833C34.1595 38.4833 33.4795 37.8033 33.4795 36.9833V24.5433C33.4795 23.7233 34.1595 23.0433 34.9795 23.0433C35.7995 23.0433 36.4795 23.7233 36.4795 24.5433V36.9833C36.4795 37.8233 35.8195 38.4833 34.9795 38.4833Z" fill="#FF4800"/>
<path d="M14.4994 27.0433C13.8194 27.0433 13.2194 26.5833 13.0394 25.9033C12.8394 25.1033 13.3194 24.2833 14.1394 24.0833C21.4994 22.2433 27.9794 18.2233 32.9194 12.4833L33.8394 11.4033C34.3794 10.7833 35.3194 10.7033 35.9594 11.2433C36.5794 11.7833 36.6594 12.7233 36.1194 13.3633L35.1994 14.4433C29.8594 20.6833 22.8194 25.0233 14.8594 27.0033C14.7394 27.0433 14.6194 27.0433 14.4994 27.0433Z" fill="#FF4800"/>
<path d="M34.9791 19.7233C34.1591 19.7233 33.4791 19.0433 33.4791 18.2233V13.8833H29.1191C28.2991 13.8833 27.6191 13.2033 27.6191 12.3833C27.6191 11.5633 28.2991 10.8833 29.1191 10.8833H34.9791C35.7991 10.8833 36.4791 11.5633 36.4791 12.3833V18.2433C36.4791 19.0633 35.8191 19.7233 34.9791 19.7233Z" fill="#FF4800"/>
<path d="M30.7393 46.1833H18.7393C7.87926 46.1833 3.23926 41.5434 3.23926 30.6833V18.6833C3.23926 7.82335 7.87926 3.18335 18.7393 3.18335H30.7393C41.5993 3.18335 46.2393 7.82335 46.2393 18.6833V30.6833C46.2393 41.5434 41.5993 46.1833 30.7393 46.1833ZM18.7393 6.18335C9.51926 6.18335 6.23926 9.46335 6.23926 18.6833V30.6833C6.23926 39.9034 9.51926 43.1833 18.7393 43.1833H30.7393C39.9593 43.1833 43.2393 39.9034 43.2393 30.6833V18.6833C43.2393 9.46335 39.9593 6.18335 30.7393 6.18335H18.7393Z" fill="#FF4800"/>
</svg>
