<svg width="48" height="48" viewBox="0 0 48 48" fill="none" xmlns="http://www.w3.org/2000/svg">
<rect width="48" height="48" rx="24" fill="#FF4800"/>
<g clip-path="url(#clip0_222_1903)">
<path d="M15.496 20.4989C15.4962 19.5508 15.7415 18.6188 16.208 17.7935C16.6746 16.9681 17.3466 16.2774 18.1588 15.7883C18.971 15.2992 19.8958 15.0284 20.8435 15.0021C21.7912 14.9758 22.7297 15.195 23.5677 15.6383C24.4058 16.0816 25.115 16.734 25.6266 17.5322C26.1382 18.3304 26.4347 19.2473 26.4875 20.1939C26.5403 21.1406 26.3474 22.0847 25.9277 22.9349C25.508 23.785 24.8756 24.5122 24.092 25.0459C25.7795 25.6648 27.2432 26.7746 28.2947 28.2324C29.3461 29.6902 29.9373 31.4293 29.992 33.2259C29.9897 33.4196 29.9126 33.6049 29.7769 33.7431C29.6411 33.8813 29.4572 33.9617 29.2636 33.9675C29.07 33.9733 28.8816 33.9041 28.7378 33.7742C28.594 33.6444 28.506 33.4641 28.492 33.2709C28.4325 31.3223 27.6166 29.4735 26.2172 28.1163C24.8178 26.759 22.945 26 20.9955 26C19.0461 26 17.1732 26.759 15.7738 28.1163C14.3745 29.4735 13.5586 31.3223 13.499 33.2709C13.489 33.4667 13.4027 33.6508 13.2586 33.7838C13.1145 33.9167 12.924 33.988 12.728 33.9822C12.532 33.9765 12.346 33.8942 12.21 33.753C12.0739 33.6118 11.9985 33.4229 12 33.2269C12.0546 31.4301 12.6456 29.6908 13.6971 28.2328C14.7486 26.7748 16.2124 25.6649 17.9 25.0459C17.1589 24.5415 16.5523 23.8635 16.1333 23.0709C15.7143 22.2784 15.4955 21.3954 15.496 20.4989ZM20.996 16.4989C19.9352 16.4989 18.9177 16.9203 18.1676 17.6704C17.4174 18.4206 16.996 19.438 16.996 20.4989C16.996 21.5597 17.4174 22.5771 18.1676 23.3273C18.9177 24.0774 19.9352 24.4989 20.996 24.4989C22.0569 24.4989 23.0743 24.0774 23.8244 23.3273C24.5746 22.5771 24.996 21.5597 24.996 20.4989C24.996 19.438 24.5746 18.4206 23.8244 17.6704C23.0743 16.9203 22.0569 16.4989 20.996 16.4989ZM29.286 20.4989C29.138 20.4989 28.994 20.5089 28.852 20.5289C28.7529 20.5466 28.6512 20.5442 28.553 20.5218C28.4548 20.4994 28.3621 20.4574 28.2805 20.3984C28.1989 20.3394 28.1299 20.2646 28.0779 20.1784C28.0258 20.0922 27.9916 19.9964 27.9774 19.8967C27.9631 19.797 27.9691 19.6954 27.995 19.5981C28.0208 19.5007 28.066 19.4096 28.1279 19.3301C28.1897 19.2506 28.2669 19.1844 28.3549 19.1354C28.4429 19.0864 28.5399 19.0556 28.64 19.0449C29.6346 18.9011 30.6488 19.0921 31.5229 19.5878C32.397 20.0835 33.0815 20.8558 33.4686 21.7832C33.8557 22.7105 33.9235 23.7403 33.6613 24.7104C33.399 25.6805 32.8217 26.5358 32.02 27.1419C33.1984 27.6695 34.1989 28.5269 34.9009 29.6105C35.6029 30.6941 35.9762 31.9577 35.976 33.2489C35.976 33.4478 35.897 33.6385 35.7564 33.7792C35.6157 33.9198 35.4249 33.9989 35.226 33.9989C35.0271 33.9989 34.8363 33.9198 34.6957 33.7792C34.555 33.6385 34.476 33.4478 34.476 33.2489C34.4759 32.133 34.1164 31.0469 33.4507 30.1513C32.785 29.2558 31.8485 28.5985 30.78 28.2769L30.246 28.1169V26.4409L30.656 26.2319C31.2638 25.924 31.75 25.4203 32.0363 24.8021C32.3226 24.1839 32.3922 23.4872 32.2339 22.8246C32.0755 22.162 31.6985 21.5721 31.1636 21.1501C30.6288 20.7281 29.9673 20.4987 29.286 20.4989Z" fill="white"/>
</g>
<defs>
<clipPath id="clip0_222_1903">
<rect width="23.976" height="24.9989" fill="white" transform="translate(12 12)"/>
</clipPath>
</defs>
</svg>
