<svg width="48" height="48" viewBox="0 0 48 48" fill="none" xmlns="http://www.w3.org/2000/svg">
<rect width="48" height="48" rx="24" fill="#FF4800"/>
<path d="M33 21.75H32.2153C32.0269 19.7014 31.0799 17.7972 29.56 16.4108C28.0402 15.0243 26.0572 14.2557 24 14.2557C21.9428 14.2557 19.9598 15.0243 18.44 16.4108C16.9201 17.7972 15.9731 19.7014 15.7847 21.75H15C14.8011 21.75 14.6103 21.829 14.4697 21.9697C14.329 22.1103 14.25 22.3011 14.25 22.5C14.2533 24.2836 14.7441 26.0324 15.6695 27.5572C16.5948 29.082 17.9194 30.3248 19.5 31.1512V31.5C19.5 31.8978 19.658 32.2794 19.9393 32.5607C20.2206 32.842 20.6022 33 21 33H27C27.3978 33 27.7794 32.842 28.0607 32.5607C28.342 32.2794 28.5 31.8978 28.5 31.5V31.1512C30.0806 30.3248 31.4052 29.082 32.3305 27.5572C33.2558 26.0324 33.7467 24.2836 33.75 22.5C33.75 22.3011 33.671 22.1103 33.5303 21.9697C33.3897 21.829 33.1989 21.75 33 21.75ZM30.7069 21.75H25.8862C26.7955 20.3858 28.1712 19.4002 29.7553 18.9778C30.2733 19.8203 30.5982 20.767 30.7069 21.75ZM28.2638 17.2716C28.4356 17.4122 28.6003 17.5606 28.7578 17.7169C26.7613 18.4192 25.1114 19.8626 24.15 21.7481H21.3844C21.8531 20.4342 22.7161 19.2969 23.8555 18.4919C24.9948 17.6868 26.3549 17.2531 27.75 17.25C27.9216 17.25 28.0931 17.2584 28.2638 17.2716ZM24 15.75C24.6018 15.7504 25.2009 15.8314 25.7812 15.9909C24.3679 16.3415 23.072 17.0585 22.024 18.0696C20.9761 19.0807 20.2132 20.3501 19.8122 21.75H17.2931C17.4792 20.1008 18.2656 18.5778 19.5025 17.4712C20.7395 16.3646 22.3403 15.752 24 15.75ZM27.4369 30C27.306 30.0601 27.1953 30.1566 27.1178 30.278C27.0404 30.3993 26.9994 30.5404 27 30.6844V31.5H21V30.6844C21.0005 30.5404 20.9596 30.3993 20.8822 30.278C20.8047 30.1566 20.694 30.0601 20.5631 30C19.2442 29.3931 18.1081 28.4499 17.2688 27.2651C16.4296 26.0803 15.9168 24.6956 15.7819 23.25H32.2153C32.0806 24.6953 31.5682 26.0798 30.7295 27.2646C29.8908 28.4493 28.7553 29.3927 27.4369 30Z" fill="white"/>
</svg>
