<svg width="48" height="48" viewBox="0 0 48 48" fill="none" xmlns="http://www.w3.org/2000/svg">
<rect width="48" height="48" rx="24" fill="#FF4800"/>
<g clip-path="url(#clip0_222_1914)">
<path d="M32.5737 25.96C33.0124 26.014 33.4348 26.1593 33.8137 26.3867H33.8471C34.2408 24.5256 34.0998 22.5911 33.4404 20.8067C33.3789 20.6418 33.2547 20.5078 33.0948 20.4341C32.935 20.3605 32.7524 20.353 32.5871 20.4134C32.4221 20.4749 32.2882 20.5991 32.2145 20.759C32.1408 20.9188 32.1334 21.1013 32.1937 21.2667C32.7447 22.7675 32.8761 24.3901 32.5737 25.96ZM29.5537 31.0534C28.3921 32.0225 26.9969 32.6706 25.5071 32.9334C25.4195 32.9408 25.3343 32.9654 25.2563 33.0058C25.1782 33.0462 25.1089 33.1015 25.0523 33.1687C24.9956 33.2359 24.9528 33.3135 24.9261 33.3973C24.8995 33.481 24.8896 33.5692 24.8971 33.6567C24.9045 33.7443 24.9291 33.8295 24.9695 33.9075C25.0099 33.9855 25.0652 34.0549 25.1324 34.1115C25.1996 34.1682 25.2772 34.211 25.361 34.2376C25.4447 34.2643 25.5329 34.2741 25.6204 34.2667H25.7404C27.5161 33.9535 29.1757 33.1708 30.5471 32V31.9534C30.1545 31.7291 29.8156 31.4219 29.5537 31.0534ZM22.4137 32.8934C21.4051 32.7052 20.4372 32.3419 19.5537 31.82C19.1761 31.5968 18.8132 31.3496 18.4671 31.08C18.2129 31.4534 17.8808 31.7673 17.4937 32C17.9266 32.3653 18.3881 32.6952 18.8737 32.9867C19.892 33.5865 21.0061 34.006 22.1671 34.2267H22.2937C22.4706 34.2426 22.6464 34.1876 22.7827 34.0739C22.919 33.9601 23.0045 33.7968 23.0204 33.62C23.0363 33.4432 22.9813 33.2673 22.8676 33.1311C22.7538 32.9948 22.5906 32.9093 22.4137 32.8934ZM15.0404 26.1C15.175 26.0898 15.3087 26.0698 15.4404 26.04C15.1226 24.4681 15.2472 22.8387 15.8004 21.3334C15.8614 21.1672 15.8539 20.9835 15.7795 20.8229C15.7051 20.6622 15.5699 20.5377 15.4037 20.4767C15.2375 20.4157 15.0539 20.4232 14.8933 20.4976C14.7326 20.572 14.6081 20.7072 14.5471 20.8734C13.8867 22.6722 13.7572 24.623 14.1737 26.4934C14.4413 26.3195 14.7334 26.1869 15.0404 26.1Z" fill="white"/>
<path d="M33.2665 27.3333C33.0284 27.1818 32.7626 27.0791 32.4845 27.031C32.2065 26.9829 31.9216 26.9905 31.6465 27.0533C31.2977 27.1446 30.977 27.321 30.7131 27.5667L28.1332 26.0733C28.5395 25.0694 28.5769 23.9541 28.2389 22.9252C27.9008 21.8963 27.2091 21.0205 26.2865 20.4533L26.2131 20.4067C25.7156 20.1234 25.1676 19.94 24.5998 19.8667V17.3333C25.1311 17.1744 25.5802 16.816 25.8532 16.3333C26.1477 15.8348 26.2337 15.2402 26.0927 14.6786C25.9517 14.117 25.5949 13.6336 25.0998 13.3333C24.8586 13.1922 24.5917 13.1007 24.3147 13.064C24.0376 13.0274 23.7561 13.0464 23.4865 13.12C23.2085 13.1908 22.9475 13.3164 22.7185 13.4892C22.4896 13.662 22.2974 13.8787 22.1531 14.1267C21.8669 14.6228 21.7855 15.211 21.9262 15.7663C22.0669 16.3215 22.4186 16.8 22.9065 17.1C23.0589 17.201 23.225 17.2796 23.3998 17.3333V19.8667C22.7284 19.9588 22.0871 20.2039 21.5254 20.583C20.9636 20.9621 20.4965 21.4651 20.1598 22.0533C19.8119 22.6548 19.6058 23.3278 19.5573 24.0209C19.5088 24.7141 19.6191 25.4092 19.8798 26.0533L17.2132 27.58C17.1189 27.4971 17.0186 27.4213 16.9132 27.3533C16.6702 27.2136 16.4021 27.1231 16.1242 27.0871C15.8463 27.051 15.5641 27.07 15.2935 27.1431C15.023 27.2161 14.7695 27.3418 14.5475 27.5128C14.3255 27.6839 14.1394 27.897 13.9998 28.14C13.7118 28.6337 13.6273 29.2202 13.7642 29.7752C13.9011 30.3302 14.2486 30.8101 14.7332 31.1133C15.0653 31.3133 15.4455 31.4193 15.8332 31.42C16.0087 31.4212 16.1836 31.3988 16.3532 31.3533C16.6376 31.2807 16.9042 31.1509 17.1368 30.9718C17.3694 30.7928 17.563 30.5682 17.7059 30.3117C17.8488 30.0553 17.9379 29.7724 17.9678 29.4804C17.9977 29.1884 17.9678 28.8934 17.8798 28.6133L20.4665 27.12C20.8138 27.5733 21.2408 27.9596 21.7265 28.26C22.6585 28.8477 23.7796 29.0576 24.8611 28.847C25.9427 28.6364 26.9031 28.0211 27.5465 27.1267L30.0998 28.6C29.9795 29.0547 30.0085 29.536 30.1825 29.9729C30.3566 30.4099 30.6665 30.7793 31.0665 31.0267C31.3959 31.2273 31.7741 31.3334 32.1598 31.3333C32.5328 31.3347 32.8995 31.2374 33.2226 31.0512C33.5458 30.865 33.8139 30.5966 33.9998 30.2733C34.2776 29.7826 34.3564 29.204 34.22 28.6569C34.0835 28.1099 33.7422 27.636 33.2665 27.3333ZM16.6665 29.7467C16.5999 29.8555 16.5117 29.9494 16.4074 30.0228C16.303 30.0962 16.1847 30.1474 16.0598 30.1733C15.9384 30.2082 15.8111 30.2173 15.6859 30.2001C15.5608 30.1829 15.4406 30.1397 15.3332 30.0733C15.1151 29.938 14.9584 29.7232 14.8962 29.4742C14.8339 29.2253 14.8711 28.9619 14.9998 28.74C15.0628 28.6308 15.1473 28.5356 15.2481 28.46C15.349 28.3843 15.4641 28.3299 15.5865 28.3C15.6603 28.2791 15.7365 28.2679 15.8132 28.2667C15.9904 28.2671 16.1638 28.318 16.3132 28.4133C16.5346 28.5454 16.6955 28.7588 16.7615 29.008C16.8276 29.2572 16.7934 29.5223 16.6665 29.7467ZM23.1865 14.7267C23.2495 14.6175 23.334 14.5222 23.4348 14.4466C23.5356 14.371 23.6507 14.3166 23.7731 14.2867C23.8469 14.2658 23.9231 14.2546 23.9998 14.2533C24.1688 14.2541 24.3346 14.3002 24.4798 14.3867C24.6978 14.5219 24.8546 14.7368 24.9168 14.9857C24.979 15.2347 24.9419 15.498 24.8131 15.72C24.7501 15.8291 24.6657 15.9244 24.5648 16C24.464 16.0756 24.3489 16.1301 24.2265 16.16C24.1081 16.192 23.9844 16.1996 23.8629 16.1824C23.7414 16.1653 23.6247 16.1236 23.5198 16.06C23.3018 15.9247 23.145 15.7098 23.0828 15.4609C23.0206 15.212 23.0578 14.9486 23.1865 14.7267ZM24.7931 27.6067C24.3809 27.7133 23.9514 27.7363 23.5301 27.6745C23.1088 27.6127 22.7041 27.4672 22.3398 27.2467C21.5877 26.7849 21.046 26.0473 20.8305 25.1915C20.615 24.3357 20.7427 23.4295 21.1865 22.6667C21.4725 22.1739 21.8829 21.765 22.3766 21.4807C22.8704 21.1964 23.4301 21.0467 23.9998 21.0467C24.5767 21.0453 25.1433 21.1996 25.6398 21.4933C26.3919 21.955 26.9336 22.6926 27.1492 23.5485C27.3647 24.4043 27.2369 25.3105 26.7931 26.0733C26.5791 26.4495 26.2918 26.7791 25.9483 27.0424C25.6048 27.3058 25.212 27.4976 24.7931 27.6067ZM32.9598 29.66C32.831 29.8805 32.62 30.0411 32.3731 30.1067C32.2543 30.1377 32.1303 30.1442 32.0089 30.1259C31.8874 30.1075 31.7709 30.0647 31.6665 30C31.4485 29.8647 31.2917 29.6498 31.2295 29.4009C31.1673 29.152 31.2044 28.8886 31.3331 28.6667C31.393 28.5484 31.4775 28.4443 31.5811 28.3615C31.6846 28.2787 31.8046 28.2191 31.9331 28.1867C32.0086 28.18 32.0844 28.18 32.1598 28.1867C32.3219 28.1854 32.4812 28.2292 32.6198 28.3133C32.8426 28.4476 33.0032 28.6645 33.0669 28.9167C33.1306 29.1689 33.0921 29.436 32.9598 29.66ZM17.3665 18.6667C18.3216 17.5384 19.5494 16.6732 20.9331 16.1533C20.7992 15.7063 20.7606 15.2362 20.8198 14.7733C19.0863 15.3529 17.5425 16.3921 16.3532 17.78C16.2356 17.9144 16.1762 18.0899 16.1881 18.2681C16.1999 18.4463 16.2821 18.6124 16.4165 18.73C16.5509 18.8476 16.7264 18.9069 16.9046 18.8951C17.0828 18.8832 17.2489 18.801 17.3665 18.6667Z" fill="white"/>
<path d="M28.4464 16.82C29.2671 17.3124 30.0013 17.9363 30.6197 18.6667C30.6766 18.7332 30.7461 18.7879 30.8241 18.8276C30.9022 18.8673 30.9873 18.8912 31.0746 18.898C31.1618 18.9049 31.2496 18.8944 31.3329 18.8673C31.4161 18.8402 31.4932 18.7969 31.5597 18.74C31.6263 18.6831 31.681 18.6137 31.7206 18.5356C31.7603 18.4576 31.7843 18.3725 31.7911 18.2852C31.7979 18.1979 31.7874 18.1102 31.7603 18.0269C31.7332 17.9437 31.69 17.8666 31.6331 17.8C30.9211 16.9553 30.0741 16.2345 29.1264 15.6667C28.5049 15.3053 27.8482 15.0082 27.1664 14.78C27.2333 15.2396 27.1992 15.7083 27.0664 16.1534C27.5438 16.3377 28.0053 16.5606 28.4464 16.82Z" fill="white"/>
</g>
<defs>
<clipPath id="clip0_222_1914">
<rect width="24" height="24" fill="white" transform="translate(12 12)"/>
</clipPath>
</defs>
</svg>
