<svg width="48" height="48" viewBox="0 0 48 48" fill="none" xmlns="http://www.w3.org/2000/svg">
<rect width="48" height="48" rx="24" fill="#FF4800"/>
<path d="M34 24C34 18.477 29.523 14 24 14C18.477 14 14 18.477 14 24C14 29.523 18.477 34 24 34" stroke="white" stroke-width="1.5" stroke-linecap="round" stroke-linejoin="round"/>
<path d="M24.9999 14.05C24.9999 14.05 27.9999 18 27.9999 24M22.9999 33.9501C22.9999 33.9501 19.9999 30 19.9999 24C19.9999 18 22.9999 14.05 22.9999 14.05M14.6299 27.5H23.9999M14.6299 20.5H33.3699" stroke="white" stroke-width="1.5" stroke-linecap="round" stroke-linejoin="round"/>
<path d="M33.8792 29.9169C34.3732 30.2209 34.3422 30.9599 33.8342 31.0179L31.2672 31.3089L30.1162 33.6209C29.8882 34.0799 29.1832 33.8549 29.0662 33.2869L27.8112 27.1709C27.7122 26.6909 28.1442 26.3889 28.5612 26.6459L33.8792 29.9169Z" stroke="white" stroke-width="1.5"/>
</svg>
