<svg width="24" height="25" viewBox="0 0 24 25" fill="none" xmlns="http://www.w3.org/2000/svg">
<path d="M20.9471 8.80496C20.937 8.04758 20.7952 7.29773 20.5281 6.58896C20.2964 5.99111 19.9426 5.44816 19.4892 4.99479C19.0359 4.54142 18.4929 4.18761 17.8951 3.95596C17.1954 3.69331 16.4562 3.5513 15.7091 3.53596C14.7471 3.49296 14.4421 3.48096 12.0001 3.48096C9.55807 3.48096 9.24507 3.48096 8.29007 3.53596C7.54323 3.55141 6.80442 3.69343 6.10507 3.95596C5.50713 4.18745 4.96409 4.5412 4.5107 4.99459C4.05732 5.44798 3.70356 5.99102 3.47207 6.58896C3.2089 7.28809 3.06719 8.02707 3.05307 8.77396C3.01007 9.73696 2.99707 10.042 2.99707 12.484C2.99707 14.926 2.99707 15.238 3.05307 16.194C3.06807 16.942 3.20907 17.68 3.47207 18.381C3.70395 18.9787 4.05797 19.5215 4.51151 19.9747C4.96505 20.4279 5.50813 20.7815 6.10607 21.013C6.8035 21.2862 7.54244 21.4383 8.29107 21.463C9.25407 21.506 9.55907 21.519 12.0011 21.519C14.4431 21.519 14.7561 21.519 15.7111 21.463C16.4582 21.4482 17.1974 21.3066 17.8971 21.044C18.4948 20.812 19.0376 20.4581 19.4909 20.0048C19.9442 19.5515 20.2982 19.0086 20.5301 18.411C20.7931 17.711 20.9341 16.973 20.9491 16.224C20.9921 15.262 21.0051 14.957 21.0051 12.514C21.0031 10.072 21.0031 9.76196 20.9471 8.80496ZM11.9941 17.102C9.44007 17.102 7.37107 15.033 7.37107 12.479C7.37107 9.92496 9.44007 7.85596 11.9941 7.85596C13.2202 7.85596 14.396 8.34302 15.263 9.21C16.13 10.077 16.6171 11.2529 16.6171 12.479C16.6171 13.7051 16.13 14.8809 15.263 15.7479C14.396 16.6149 13.2202 17.102 11.9941 17.102ZM16.8011 8.76296C16.2041 8.76296 15.7231 8.28096 15.7231 7.68496C15.7231 7.54346 15.7509 7.40334 15.8051 7.27262C15.8592 7.14189 15.9386 7.0231 16.0387 6.92305C16.1387 6.82299 16.2575 6.74363 16.3882 6.68948C16.519 6.63533 16.6591 6.60746 16.8006 6.60746C16.9421 6.60746 17.0822 6.63533 17.2129 6.68948C17.3436 6.74363 17.4624 6.82299 17.5625 6.92305C17.6625 7.0231 17.7419 7.14189 17.7961 7.27262C17.8502 7.40334 17.8781 7.54346 17.8781 7.68496C17.8781 8.28096 17.3961 8.76296 16.8011 8.76296Z" fill="#EBEBEB"/>
<path d="M11.9942 15.4821C13.6527 15.4821 14.9972 14.1376 14.9972 12.4791C14.9972 10.8206 13.6527 9.47607 11.9942 9.47607C10.3357 9.47607 8.99121 10.8206 8.99121 12.4791C8.99121 14.1376 10.3357 15.4821 11.9942 15.4821Z" fill="#EBEBEB"/>
</svg>
