<svg width="25" height="25" viewBox="0 0 25 25" fill="none" xmlns="http://www.w3.org/2000/svg">
<path d="M6.25689 8.34581C7.31888 8.34581 8.1798 7.4849 8.1798 6.42291C8.1798 5.36091 7.31888 4.5 6.25689 4.5C5.1949 4.5 4.33398 5.36091 4.33398 6.42291C4.33398 7.4849 5.1949 8.34581 6.25689 8.34581Z" fill="#EBEBEB"/>
<path d="M9.99648 9.80271V20.471H13.3088V15.1953C13.3088 13.8032 13.5707 12.4551 15.2968 12.4551C16.9991 12.4551 17.0202 14.0466 17.0202 15.2832V20.4719H20.3343V14.6214C20.3343 11.7476 19.7156 9.53906 16.3567 9.53906C14.744 9.53906 13.663 10.4241 13.2209 11.2616H13.1761V9.80271H9.99648ZM4.59863 9.80271H7.91626V20.471H4.59863V9.80271Z" fill="#EBEBEB"/>
</svg>
