<svg width="25" height="25" viewBox="0 0 25 25" fill="none" xmlns="http://www.w3.org/2000/svg">
<path d="M21.6317 7.1672C20.968 7.44638 20.2593 7.63657 19.5131 7.72341C20.2736 7.2849 20.8585 6.59376 21.1353 5.76913C20.422 6.16745 19.6316 6.4574 18.7901 6.61888C18.1181 5.93061 17.1604 5.5 16.097 5.5C14.0593 5.5 12.4071 7.08107 12.4071 9.02889C12.4071 9.30879 12.4409 9.57792 12.5024 9.83557C9.435 9.69706 6.71637 8.28751 4.89694 6.15669C4.5767 6.67486 4.39746 7.277 4.39746 7.93297C4.39746 9.16022 5.04993 10.2389 6.03839 10.8726C5.43317 10.854 4.86394 10.6946 4.36746 10.4305V10.4743C4.36746 12.186 5.63716 13.6135 7.32684 13.9386C7.0171 14.0183 6.69012 14.0613 6.35488 14.0613C6.11939 14.0613 5.89365 14.0398 5.66791 13.9996C6.14114 15.4013 7.50158 16.4233 9.12076 16.452C7.86082 17.3986 6.26413 17.9627 4.54446 17.9627C4.25197 17.9627 3.96023 17.9462 3.66699 17.9146C5.30867 18.9151 7.24284 19.5 9.33451 19.5C16.1247 19.5 19.8333 14.1202 19.8333 9.46237C19.8333 9.31238 19.8333 9.16094 19.8221 9.01023C20.5428 8.51574 21.172 7.89063 21.667 7.18155L21.6317 7.1672Z" fill="#EBEBEB"/>
</svg>
